<svg width="120" height="120" viewBox="0 0 120 120" fill="none" xmlns="http://www.w3.org/2000/svg">
  <path d="M60 10l8 25 25 8-25 8-8 25-8-25-25-8 25-8 8-25Z" fill="url(#g)"/>
  <path d="M95 60l4 12 12 4-12 4-4 12-4-12-12-4 12-4 4-12Z" fill="#FBBF24"/>
  <path d="M30 65l3 9 9 3-9 3-3 9-3-9-9-3 9-3 3-9Z" fill="#06B6D4"/>
  <defs>
    <linearGradient id="g" x1="30" y1="10" x2="90" y2="92" gradientUnits="userSpaceOnUse">
      <stop stop-color="#E91E8C"/>
      <stop offset="0.5" stop-color="#7C3AED"/>
      <stop offset="1" stop-color="#06B6D4"/>
    </linearGradient>
  </defs>
</svg>